<svg width="47" height="39" viewBox="0 0 47 39" fill="none" xmlns="http://www.w3.org/2000/svg">
<path d="M23.5176 8C29.8587 8 35 13.1371 35 19.4727C34.9999 25.8082 29.8587 30.9453 23.5176 30.9453C17.1766 30.9452 12.0352 25.8081 12.0352 19.4727C12.0352 13.1371 17.1765 8.00011 23.5176 8ZM16.5459 23.1162L15.9561 25.3018H18.1436L18.7256 23.1162H16.5459ZM24.7451 20.9385L24.1553 23.123H26.335L25.7529 25.3018H27.9395L28.5225 23.1162H26.3486L26.9316 20.9385H24.7451ZM19.3086 20.9385L18.7256 23.123H20.9062L21.4951 20.9385H19.3086ZM22.7158 18.2461L22.1328 20.4248H24.3203L24.9023 18.2461H22.7158ZM20.6865 15.541L20.1035 17.7188H17.9238L17.3408 19.9043H19.5215L20.1035 17.7256H22.2842L22.873 15.541H20.6865ZM23.4082 15.541L22.8252 17.7256H25.0059L25.5947 15.541H23.4082ZM28.9062 13.3633L28.3232 15.541H26.1436L25.5537 17.7256H27.7334L28.3164 15.5479H30.4961L31.0928 13.3633H28.9062ZM24.9297 11.4248C23.9291 11.425 23.1203 12.2327 23.1201 13.2324C23.1201 14.2323 23.9289 15.0409 24.9297 15.041C25.9306 15.041 26.7402 14.2324 26.7402 13.2324C26.74 12.2326 25.9304 11.4248 24.9297 11.4248Z" fill="#6C757D"/>
</svg>
